<svg width="72" height="52" viewBox="0 0 72 52" fill="none" xmlns="http://www.w3.org/2000/svg">
<path d="M36 44L33.4453 45.7031C33.1671 45.8886 33 46.2008 33 46.5352V50C33 50.5523 32.5523 51 32 51H21C20.4477 51 20 50.5523 20 50V47.3699C20 47.1312 19.9146 46.9004 19.7593 46.7191L14.2993 40.3492C14.1093 40.1276 13.832 40 13.5401 40H3.41421C3.149 40 2.89464 39.8947 2.70711 39.7071L1.29289 38.2929C1.10536 38.1054 1 37.851 1 37.5858V30.5146C1 30.1917 1.15597 29.8886 1.41876 29.7009L13.4188 21.1295C14.0806 20.6567 15 18.8733 15 18.0599C15 16.5937 15 14.0195 15 9.5C15 -1.00002 36 -0.50001 36 6.00001M33 11C33 13.524 33 14.7478 33 15.281C33 15.8333 32.5523 15 32 15C27.464 15 24.536 15 20 15C19.4477 15 19 15.1948 19 14.6425C19 14.0358 19 12.9331 19 11C19 5 33 4 33 11Z" stroke="#913CF1" stroke-width="1.2"/>
<path d="M36 43.9542L38.5572 45.6702C38.834 45.8559 39 46.1673 39 46.5005V50C39 50.5523 39.4477 51 40 51H51C51.5523 51 52 50.5523 52 50V47.3419C52 47.1043 52.0846 46.8745 52.2387 46.6936L57.7005 40.2797C57.8905 40.0566 58.1688 39.9281 58.4619 39.9281H68.5839C68.8502 39.9281 69.1056 39.8218 69.2933 39.6329L70.7094 38.2075C70.8955 38.0201 71 37.7668 71 37.5027V30.3753C71 30.0534 70.8451 29.7512 70.5837 29.5634L58.5837 20.9359C57.9222 20.4602 57 18.6644 57 17.8496C57 16.3747 57 13.783 57 9.22855C57 -1.34015 36 -0.836868 36 5.70566M39 10.7384C39 13.289 39 14.5206 39 15.0538C39 15.6061 39.4477 14.7645 40 14.7645C44.536 14.7645 47.464 14.7645 52 14.7645C52.5523 14.7645 53 14.9637 53 14.4114C53 13.8022 53 12.6913 53 10.7384C53 4.69912 39 3.69258 39 10.7384Z" stroke="#913CF1" stroke-width="1.2"/>
<path d="M33 18H19V40C19 44 33 43.7541 33 40V18Z" stroke="#913CF1" stroke-width="1.2"/>
<path d="M39 18H53V40.0808C53 44.0955 39 43.8487 39 40.0808V18Z" stroke="#913CF1" stroke-width="1.2"/>
<path d="M35.5 44L33 40.5L31 42.5L27.5 43.5H24L19.5 42L18 40.5V20.5L18.5 18L21 17.5H24H27H31H33.5V15.5L31.5 16L28.5 15.5L24.5 16H20H18V14.5V11L18.5 8.5L21.5 6L24 5.5H29L33 8.5L35.5 5.5L34.5 4L32 3L27 2L22.5 2.5L19.5 3.5L18 4.5L16.5 5.5L15.5 8.5V18L15 20.5L1.5 30.5V38L3.5 39.5L14.5 40L20.5 47V50H32.5L33 46L35.5 44Z" fill="#913CF1" stroke="#913CF1" stroke-width="1.2"/>
<path d="M36 44L38.5 40.5L40.5 42.5L44 43.5H47.5L52 42L53.5 40.5V20.5L53 18L50.5 17.5H47.5H44.5H40.5H38V15.5H40H43H47H49.5H53L53.5 16V14.5V11L53 8.5L50 6L47.5 5.5H42.5L38.5 8.5L36 5.5L37 4L39.5 3L44.5 2L49 2.5L52 3.5L53.5 4.5L55 5.5L56 8.5V18L57 20.5L70 30.5V38L68 39.5L57 40L51 47V50H39L38.5 46L36 44Z" fill="#913CF1" stroke="#913CF1" stroke-width="1.2"/>
<path d="M35.5 5.5L33 9L33.6203 40.5L35.5 43L38.5 40.5L39 9L35.5 5.5Z" fill="#913CF1" stroke="#913CF1" stroke-width="1.2"/>
</svg>
